# AST/ASF file generated using VICON BodyLanguage
# -----------------------------------------------
:version 1.10
:name VICON
:units
  mass 1.0
  length 0.45
  angle deg
:documentation
   .ast/.asf automatically generated from VICON data using
   VICON BodyBuilder and BodyLanguage model FoxedUp or BRILLIANT.MOD
:root
   order TX TY TZ RX RY RZ
   axis XYZ
   position 0 0 0  
   orientation 0 0 0 
:bonedata
  begin
     id 1 
     name lhipjoint
     direction 0.690799 -0.707083 0.151096 
     length 2.54797 
     axis 0 0 0  XYZ
  end
  begin
     id 2 
     name lfemur
     direction 0.34202 -0.939693 0  
     length 7.21646  
     axis 0 0 20  XYZ
    dof rx ry rz
    limits (-160.0 20.0)
           (-70.0 70.0)
           (-60.0 70.0)
  end
  begin
     id 3 
     name ltibia
     direction 0.34202 -0.939693 0   
     length 8.16759   
     axis 0 0 20   XYZ
    dof rx
    limits (-10.0 170.0)
  end
  begin
     id 4 
     name lfoot
     direction 0.0487203 -0.133858 0.989802   
     length 1.93375   
     axis -90 7.62852e-016 20   XYZ
    dof rx rz
    limits (-45.0 90.0)
           (-70.0 20.0)
  end
  begin
     id 5 
     name ltoes
     direction 1.53453e-011 -4.21783e-011 1   
     length 0.979747   
     axis -90 7.62852e-016 20   XYZ
    dof rx
    limits (-90.0 20.0)
  end
  begin
     id 6 
     name rhipjoint
     direction -0.694693 -0.703425 0.150315   
     length 2.56122  
     axis 0 0 0  XYZ 
  end
  begin
     id 7 
     name rfemur
     direction -0.34202 -0.939693 0   
     length 7.36786   
     axis 0 0 -20   XYZ
    dof rx ry rz
    limits (-160.0 20.0)
           (-70.0 70.0)
           (-70.0 60.0)
  end
  begin
     id 8 
     name rtibia
     direction -0.34202 -0.939693 0   
     length 8.07288   
     axis 0 0 -20   XYZ
    dof rx
    limits (-10.0 170.0)
 end
 begin
     id 9 
     name rfoot
     direction -0.0428397 -0.117701 0.992125   
     length 1.88295  
     axis -90 -7.62852e-016 -20   XYZ
    dof rx rz
    limits (-45.0 90.0)
           (-20.0 70.0)
  end
  begin
     id 10 
     name rtoes
     direction -1.53456e-011 -4.2187e-011 1   
     length 0.955578   
     axis -90 -7.62852e-016 -20   XYZ
    dof rx
    limits (-90.0 20.0)
  end
  begin
     id 11 
     name lowerback
     direction 0.0288145 0.999398 -0.0193241   
     length 1.92149   
     axis 0 0 0   XYZ
    dof rx ry rz
    limits (-20.0 45.0)
           (-30.0 30.0)
           (-30.0 30.0)
  end
  begin
     id 12 
     name upperback
     direction 0.0233784 0.998099 0.0570278   
     length 1.90435   
     axis 0 0 0   XYZ
    dof rx ry rz
    limits (-20.0 45.0)
           (-30.0 30.0)
           (-30.0 30.0)
  end
  begin
     id 13 
     name thorax
     direction 0.0096694 0.997833 0.0650817   
     length 1.9111   
     axis 0 0 0   XYZ
    dof rx ry rz
    limits (-20.0 45.0)
           (-30.0 30.0)
           (-30.0 30.0)
  end
  begin
     id 14 
     name lowerneck
     direction 0.00516803 0.999916 0.0118722   
     length 1.74664   
     axis 0 0 0   XYZ
    dof rx ry rz
    limits (-20.0 45.0)
           (-30.0 30.0)
           (-30.0 30.0)
  end
  begin
     id 15 
     name upperneck
     direction -0.0510851 0.996117 -0.071696   
     length 1.68498   
     axis 0 0 0   XYZ
    dof rx ry rz
    limits (-20.0 45.0)
           (-30.0 30.0)
           (-30.0 30.0)
  end
  begin
     id 16
     name head
     direction -0.019188 0.999436 -0.0275702  
     length 1.83483  
     axis 0 0 0   XYZ
    dof rx ry rz
    limits (-20.0 45.0)
           (-30.0 30.0)
           (-30.0 30.0)
  end
  begin
     id 17 
     name lclavicle
     direction 0.967006 0.248456 -0.0562957  
     length 3.39395  
     axis 0 0 0   XYZ
    dof ry rz
    limits (-20.0 10.0)
           (0.0 20.0)
  end
  begin
     id 18 
     name lhumerus
     direction 1 -4.48962e-011 -5.62711e-019   
     length 5.24318   
     axis 180 -30 -90   XYZ
    dof rx ry rz
    limits (-60.0 90.0)
           (-90.0 90.0)
           (-90.0 90.0)
  end
  begin
     id 19
     name lradius
     direction 1 -4.48966e-011 7.90625e-027   
     length 2.98999   
     axis 180 -30 -90   XYZ
    dof rx
    limits (-10.0 170.0)
  end
  begin
     id 20
     name lwrist
     direction 1 -4.48959e-011 1.61068e-026   
     length 1.49499   
     axis -9.31229e-015 90 90   XYZ
    dof ry
    limits (-180.0 0.0)
 end
  begin
     id 21 
     name lhand
     direction 1 -4.49017e-011 3.22136e-026   
     length 0.726745   
     axis -2.0555e-014 90 90   XYZ
    dof rx rz
    limits (-90.0 90.0)
           (-45.0 45.0)
  end
  begin
     id 22 
     name lfingers
     direction 1 -4.4898e-011 6.44272e-026   
     length 0.58592   
     axis -4.11101e-014 90 90   XYZ
    dof rx
    limits (0.0 90.0)
  end
  begin
     id 23
     name lthumb
     direction 0.707107 -6.34922e-011 0.707107   
     length 0.841268   
     axis -90 45 2.85299e-015   XYZ
    dof rx rz
    limits (-45.0 45.0)
           (-45.0 45.0)
  end
  begin
     id 24 
     name rclavicle
     direction -0.972232 0.230238 0.0419005   
     length 3.40416  
     axis 0 0 0   XYZ 
    dof ry rz
    limits (-10.0 20.0)
           (-20.0 0.0)
  end
  begin
     id 25 
     name rhumerus
     direction -1 -4.48976e-011 2.48487e-027  
     length 5.37045   
     axis 180 30 90   XYZ
    dof rx ry rz
    limits (-90.0 60.0)
           (-90.0 90.0)
           (-90.0 90.0)
  end
  begin
     id 26 
     name rradius
     direction -1 -4.48942e-011 7.87951e-027   
     length 2.92792   
     axis 180 30 90   XYZ
    dof rx
    limits (-10.0 170.0)
  end
  begin
     id 27 
     name rwrist
     direction -1 -4.48969e-011 1.61068e-026   
     length 1.46396   
     axis -9.31229e-015 -90 -90   XYZ
    dof ry
    limits (-180.0 0.0)
  end
  begin
     id 28
     name rhand
     direction -1 -4.49043e-011 3.22136e-026   
     length 0.784497   
     axis -2.0555e-014 -90 -90   XYZ
    dof rx rz
    limits (-90.0 90.0)
           (-45.0 45.0)
  end
  begin
     id 29
     name rfingers
     direction -1 -4.48823e-011 6.44272e-026   
     length 0.632482   
     axis -4.11101e-014 -90 -90   XYZ
    dof rx
    limits (0.0 90.0)
  end
  begin
     id 30
     name rthumb
     direction -0.707107 -6.34923e-011 0.707107   
     length 0.908121   
     axis -90 -45 -2.85299e-015   XYZ
    dof rx rz
    limits (-45.0 45.0)
           (-45.0 45.0)
  end
:hierarchy
  begin
    root lhipjoint rhipjoint lowerback
    lhipjoint lfemur
    lfemur ltibia
    ltibia lfoot
    lfoot ltoes
    rhipjoint rfemur
    rfemur rtibia
    rtibia rfoot
    rfoot rtoes
    lowerback upperback
    upperback thorax
    thorax lowerneck lclavicle rclavicle
    lowerneck upperneck
    upperneck head
    lclavicle lhumerus
    lhumerus lradius
    lradius lwrist
    lwrist lhand lthumb
    lhand lfingers
    rclavicle rhumerus
    rhumerus rradius
    rradius rwrist
    rwrist rhand rthumb
    rhand rfingers
  end

#!OML:ASF E:\Style6\Style6.ASF
:FULLY-SPECIFIED
:DEGREES
1060
root 0.134044 17.7288 -1.64116 15.1237 -0.631016 0.380565
lowerback 28.277 -0.628154 1.71081
upperback 10.732 -0.150607 3.26047
thorax -3.58025 -0.115138 2.64325
lowerneck 9.39718 3.98555 0.639613
upperneck -27.722 1.65969 -15.749
head -10.2123 2.59393 -6.00695
rclavicle -7.95139e-016 5.725e-014
rhumerus 11.9553 36.9572 -84.2575
rradius 123.357
rwrist 34.5261
rhand -3.10089 4.70412
rfingers 7.12502
rthumb 22.6171 -23.9908
lclavicle -7.95139e-016 5.725e-014
lhumerus 1.91546 -30.7839 92.8268
lradius 123.942
lwrist -29.4417
lhand -16.785 22.1756
lfingers 7.12502
lthumb 9.44275 51.9441
rfemur -38.5005 -1.25348 19.3122
rtibia 31.8332
rfoot -3.79112 -11.6361
rtoes -8.41493
lfemur -37.0157 0.0893538 -17.7116
ltibia 33.3609
lfoot -4.36314 7.57995
ltoes -24.6252
1061
root 0.144203 17.733 -1.64539 15.0921 -0.371031 0.182792
lowerback 28.3877 -0.661639 1.89033
upperback 10.7188 -0.143519 3.21113
thorax -3.6472 -0.105978 2.48544
lowerneck 9.17671 3.77472 0.819147
upperneck -27.9429 1.47629 -15.3543
head -10.266 2.44225 -5.88008
rclavicle 1.74931e-014 -1.66979e-014
rhumerus 11.7616 36.818 -84.3227
rradius 123.289
rwrist 34.3582
rhand -3.12045 4.51019
rfingers 7.12502
rthumb 22.5984 -24.187
lclavicle 1.74931e-014 -1.66979e-014
lhumerus 1.98785 -30.9162 92.6077
lradius 123.764
lwrist -29.5896
lhand -16.5784 22.0354
lfingers 7.12502
lthumb 9.64211 51.7948
rfemur -38.3238 -1.2478 19.4749
rtibia 31.6381
rfoot -3.65428 -11.833
rtoes -9.50132
lfemur -37.0307 0.00889248 -17.504
ltibia 33.3153
lfoot -4.34065 7.44456
ltoes -24.7914
1062
root 0.154157 17.7385 -1.64765 15.0892 -0.212675 0.124102
lowerback 28.3971 -0.654221 1.87661
upperback 10.6886 -0.141262 3.1108
thorax -3.6863 -0.102141 2.3823
lowerneck 8.92602 3.56917 0.956226
upperneck -27.9779 1.34391 -14.843
head -10.242 2.29761 -5.69204
rclavicle 1.03368e-014 3.18055e-015
rhumerus 11.4608 36.6604 -84.5291
rradius 123.18
rwrist 34.1915
rhand -3.26763 4.37545
rfingers 7.12502
rthumb 22.4571 -24.3389
lclavicle 1.03368e-014 3.18055e-015
lhumerus 1.92018 -31.0169 92.4472
lradius 123.618
lwrist -29.6186
lhand -16.4086 21.928
lfingers 7.12502
lthumb 9.80598 51.6797
rfemur -38.1851 -1.18847 19.4632
rtibia 31.4471
rfoot -3.6586 -12.0762
rtoes -9.34293
lfemur -37.0288 -0.0754711 -17.4523
ltibia 33.2494
lfoot -4.28973 7.3671
ltoes -24.7379
1063
root 0.165648 17.7428 -1.64703 15.155 -0.0938804 0.0795374
lowerback 28.218 -0.638151 1.89012
upperback 10.7005 -0.131664 2.99257
thorax -3.59088 -0.0938286 2.23814
lowerneck 8.6567 3.35288 1.05226
upperneck -28.0216 1.19454 -14.3011
head -10.2204 2.14614 -5.48499
rclavicle 3.18055e-015 -1.94809e-014
rhumerus 11.2265 36.3383 -84.6793
rradius 123.059
rwrist 34.0106
rhand -3.30642 4.48067
rfingers 7.12502
rthumb 22.4199 -24.2382
lclavicle 3.18055e-015 -1.94809e-014
lhumerus 1.94655 -31.0793 92.4324
lradius 123.526
lwrist -29.6121
lhand -15.998 22.0648
lfingers 7.12502
lthumb 10.2021 51.7975
rfemur -38.1138 -1.13146 19.4281
rtibia 31.2393
rfoot -3.65973 -12.2543
rtoes -8.51381
lfemur -37.0596 -0.216374 -17.4032
ltibia 33.1512
lfoot -4.20029 7.39267
ltoes -24.8965
1064
root 0.17707 17.7484 -1.64652 15.207 0.040692 0.0631191
lowerback 28.0351 -0.632303 1.90086
upperback 10.729 -0.13545 2.88087
thorax -3.47454 -0.0920466 2.10698
lowerneck 8.38002 3.1464 1.15463
upperneck -28.0389 1.04008 -13.8436
head -10.1869 2.00089 -5.30915
rclavicle -3.97569e-015 -9.14409e-015
rhumerus 11.0397 35.9683 -84.8011
rradius 122.843
rwrist 33.8245
rhand -3.31397 4.8638
rfingers 7.12502
rthumb 22.4126 -23.8559
lclavicle -3.97569e-015 -9.14409e-015
lhumerus 2.09507 -31.0983 92.3497
lradius 123.347
lwrist -29.633
lhand -15.6072 22.1515
lfingers 7.12502
lthumb 10.5791 51.8652
rfemur -38.0196 -1.12358 19.3834
rtibia 31.0328
rfoot -3.683 -12.4026
rtoes -7.88773
lfemur -37.0525 -0.352184 -17.391
ltibia 33.0025
lfoot -4.15145 7.38343
ltoes -24.8321
